<?xml version="1.0" encoding="UTF-8" standalone="no"?>
<!-- Created with Inkscape (http://www.inkscape.org/) -->

<svg
   width="219.08632mm"
   height="45.303585mm"
   viewBox="0 0 219.08632 45.303585"
   version="1.1"
   id="svg5"
   inkscape:version="1.2.2 (732a01da63, 2022-12-09)"
   sodipodi:docname="logo.svg"
   xmlns:inkscape="http://www.inkscape.org/namespaces/inkscape"
   xmlns:sodipodi="http://sodipodi.sourceforge.net/DTD/sodipodi-0.dtd"
   xmlns="http://www.w3.org/2000/svg"
   xmlns:svg="http://www.w3.org/2000/svg">
  <sodipodi:namedview
     id="namedview7"
     pagecolor="#ffffff"
     bordercolor="#000000"
     borderopacity="0.25"
     inkscape:showpageshadow="2"
     inkscape:pageopacity="0.0"
     inkscape:pagecheckerboard="0"
     inkscape:deskcolor="#d1d1d1"
     inkscape:document-units="mm"
     showgrid="true"
     inkscape:zoom="1.4770342"
     inkscape:cx="537.2252"
     inkscape:cy="148.27009"
     inkscape:window-width="2560"
     inkscape:window-height="1369"
     inkscape:window-x="-8"
     inkscape:window-y="1072"
     inkscape:window-maximized="1"
     inkscape:current-layer="g2260">
    <inkscape:grid
       type="xygrid"
       id="grid2262"
       originx="-29.104166"
       originy="-70.983334" />
  </sodipodi:namedview>
  <defs
     id="defs2" />
  <g
     inkscape:label="Layer 1"
     inkscape:groupmode="layer"
     id="layer1"
     style="display:inline"
     transform="translate(-29.104166,-70.983336)">
    <g
       aria-label="Soft Solut  on"
       id="text113"
       style="font-size:31.75px;stroke-width:0.367593">
      <path
         d="m 36.755916,103.85425 q -2.19075,0 -3.937,-0.762 -1.7145,-0.79375 -2.69875,-2.159 -0.98425,-1.396996 -1.016,-3.206746 h 3.07975 q 0.15875,1.55575 1.27,2.635246 1.143,1.04775 3.302,1.04775 2.06375,0 3.2385,-1.016 1.2065,-1.047746 1.2065,-2.666996 0,-1.27 -0.6985,-2.06375 -0.6985,-0.79375 -1.74625,-1.2065 -1.04775,-0.41275 -2.82575,-0.889 -2.19075,-0.5715 -3.52425,-1.143 -1.30175,-0.5715 -2.25425,-1.778 -0.92075,-1.23825 -0.92075,-3.302 0,-1.80975 0.92075,-3.20675 0.92075,-1.397 2.57175,-2.159 1.68275,-0.762 3.84175,-0.762 3.1115,0 5.08,1.55575 2.00025,1.55575 2.25425,4.1275 h -3.175 q -0.15875,-1.27 -1.3335,-2.2225 -1.17475,-0.98425 -3.1115,-0.98425 -1.80975,0 -2.95275,0.9525 -1.143,0.92075 -1.143,2.6035 0,1.2065 0.66675,1.9685 0.6985,0.762 1.68275,1.17475 1.016,0.381 2.82575,0.889 2.19075,0.60325 3.52425,1.2065 1.3335,0.5715 2.286,1.80975 0.9525,1.2065 0.9525,3.302 0,1.61925 -0.85725,3.047996 -0.85725,1.42875 -2.54,2.31775 -1.68275,0.889 -3.96875,0.889 z"
         style="-inkscape-font-specification:Poppins"
         id="path799" />
      <path
         d="m 55.964664,103.91775 q -2.44475,0 -4.445,-1.11125 -1.9685,-1.11125 -3.1115,-3.143246 -1.11125,-2.06375 -1.11125,-4.7625 0,-2.667 1.143,-4.699 1.17475,-2.06375 3.175,-3.14325 2.00025,-1.11125 4.47675,-1.11125 2.4765,0 4.47675,1.11125 2.00025,1.0795 3.14325,3.1115 1.17475,2.032 1.17475,4.73075 0,2.69875 -1.2065,4.7625 -1.17475,2.031996 -3.20675,3.143246 -2.032,1.11125 -4.5085,1.11125 z m 0,-2.54 q 1.55575,0 2.921,-0.73025 1.36525,-0.730246 2.19075,-2.190746 0.85725,-1.4605 0.85725,-3.556 0,-2.0955 -0.8255,-3.556 -0.8255,-1.4605 -2.159,-2.159 -1.3335,-0.73025 -2.88925,-0.73025 -1.5875,0 -2.921,0.73025 -1.30175,0.6985 -2.0955,2.159 -0.79375,1.4605 -0.79375,3.556 0,2.12725 0.762,3.58775 0.79375,1.4605 2.0955,2.190746 1.30175,0.6985 2.8575,0.6985 z"
         style="-inkscape-font-specification:Poppins"
         id="path801" />
      <path
         d="m 75.776646,88.614254 h -3.65125 V 103.632 h -2.88925 V 88.614254 h -2.25425 v -2.38125 h 2.25425 v -1.23825 q 0,-2.921 1.49225,-4.2545 1.524,-1.36525 4.85775,-1.36525 v 2.413 q -1.905,0 -2.69875,0.762 -0.762,0.73025 -0.762,2.44475 v 1.23825 h 3.65125 z"
         style="-inkscape-font-specification:Poppins"
         id="path803" />
      <path
         d="m 82.666409,88.614254 v 10.25525 q 0,1.269996 0.53975,1.809746 0.53975,0.508 1.87325,0.508 h 2.12725 v 2.44475 h -2.6035 q -2.413,0 -3.6195,-1.11125 -1.2065,-1.11125 -1.2065,-3.651246 v -10.25525 h -2.25425 v -2.38125 h 2.25425 v -4.3815 h 2.88925 v 4.3815 h 4.54025 v 2.38125 z"
         style="-inkscape-font-specification:Poppins"
         id="path805" />
      <path
         d="m 106.19317,103.85425 q -2.19075,0 -3.937,-0.762 -1.7145,-0.79375 -2.698748,-2.159 -0.98425,-1.396996 -1.016,-3.206746 h 3.079748 q 0.15875,1.55575 1.27,2.635246 1.143,1.04775 3.302,1.04775 2.06375,0 3.2385,-1.016 1.2065,-1.047746 1.2065,-2.666996 0,-1.27 -0.6985,-2.06375 -0.6985,-0.79375 -1.74625,-1.2065 -1.04775,-0.41275 -2.82575,-0.889 -2.19075,-0.5715 -3.52425,-1.143 -1.30175,-0.5715 -2.254248,-1.778 -0.92075,-1.23825 -0.92075,-3.302 0,-1.80975 0.92075,-3.20675 0.920748,-1.397 2.571748,-2.159 1.68275,-0.762 3.84175,-0.762 3.1115,0 5.08,1.55575 2.00025,1.55575 2.25425,4.1275 h -3.175 q -0.15875,-1.27 -1.3335,-2.2225 -1.17475,-0.98425 -3.1115,-0.98425 -1.80975,0 -2.95275,0.9525 -1.143,0.92075 -1.143,2.6035 0,1.2065 0.66675,1.9685 0.6985,0.762 1.68275,1.17475 1.016,0.381 2.82575,0.889 2.19075,0.60325 3.52425,1.2065 1.3335,0.5715 2.286,1.80975 0.9525,1.2065 0.9525,3.302 0,1.61925 -0.85725,3.047996 -0.85725,1.42875 -2.54,2.31775 -1.68275,0.889 -3.96875,0.889 z"
         style="-inkscape-font-specification:Poppins"
         id="path807" />
      <path
         d="m 125.40193,103.91775 q -2.44475,0 -4.445,-1.11125 -1.9685,-1.11125 -3.1115,-3.143246 -1.11125,-2.06375 -1.11125,-4.7625 0,-2.667 1.143,-4.699 1.17475,-2.06375 3.175,-3.14325 2.00025,-1.11125 4.47675,-1.11125 2.4765,0 4.47675,1.11125 2.00025,1.0795 3.14325,3.1115 1.17475,2.032 1.17475,4.73075 0,2.69875 -1.2065,4.7625 -1.17475,2.031996 -3.20675,3.143246 -2.032,1.11125 -4.5085,1.11125 z m 0,-2.54 q 1.55575,0 2.921,-0.73025 1.36525,-0.730246 2.19075,-2.190746 0.85725,-1.4605 0.85725,-3.556 0,-2.0955 -0.8255,-3.556 -0.8255,-1.4605 -2.159,-2.159 -1.3335,-0.73025 -2.88925,-0.73025 -1.5875,0 -2.921,0.73025 -1.30175,0.6985 -2.0955,2.159 -0.79375,1.4605 -0.79375,3.556 0,2.12725 0.762,3.58775 0.79375,1.4605 2.0955,2.190746 1.30175,0.6985 2.8575,0.6985 z"
         style="-inkscape-font-specification:Poppins"
         id="path809" />
      <path
         d="M 141.0229,80.137004 V 103.632 h -2.88925 V 80.137004 Z"
         style="-inkscape-font-specification:Poppins"
         id="path811" />
      <path
         d="M 161.37466,86.233004 V 103.632 h -2.88925 v -2.57175 q -0.8255,1.3335 -2.31775,2.0955 -1.4605,0.73025 -3.2385,0.73025 -2.032,0 -3.65125,-0.8255 -1.61925,-0.85725 -2.57175,-2.54 -0.92075,-1.682746 -0.92075,-4.095746 v -10.19175 h 2.8575 v 9.81075 q 0,2.57175 1.30175,3.968746 1.30175,1.36525 3.556,1.36525 2.31775,0 3.65125,-1.428746 1.3335,-1.42875 1.3335,-4.15925 v -9.55675 z"
         style="-inkscape-font-specification:Poppins"
         id="path813" />
      <path
         d="m 169.7884,88.614254 v 10.25525 q 0,1.269996 0.53975,1.809746 0.53975,0.508 1.87325,0.508 h 2.12725 v 2.44475 h -2.6035 q -2.413,0 -3.6195,-1.11125 -1.2065,-1.11125 -1.2065,-3.651246 v -10.25525 h -2.25425 v -2.38125 h 2.25425 v -4.3815 h 2.88925 v 4.3815 h 4.54025 v 2.38125 z"
         style="-inkscape-font-specification:Poppins"
         id="path815" />
      <path
         d="m 202.36392,103.91775 q -2.44475,0 -4.445,-1.11125 -1.9685,-1.11125 -3.1115,-3.143246 -1.11125,-2.06375 -1.11125,-4.7625 0,-2.667 1.143,-4.699 1.17475,-2.06375 3.175,-3.14325 2.00025,-1.11125 4.47675,-1.11125 2.4765,0 4.47675,1.11125 2.00025,1.0795 3.14325,3.1115 1.17475,2.032 1.17475,4.73075 0,2.69875 -1.2065,4.7625 -1.17475,2.031996 -3.20675,3.143246 -2.032,1.11125 -4.5085,1.11125 z m 0,-2.54 q 1.55575,0 2.921,-0.73025 1.36525,-0.730246 2.19075,-2.190746 0.85725,-1.4605 0.85725,-3.556 0,-2.0955 -0.8255,-3.556 -0.8255,-1.4605 -2.159,-2.159 -1.3335,-0.73025 -2.88925,-0.73025 -1.5875,0 -2.921,0.73025 -1.30175,0.6985 -2.0955,2.159 -0.79375,1.4605 -0.79375,3.556 0,2.12725 0.762,3.58775 0.79375,1.4605 2.0955,2.190746 1.30175,0.6985 2.8575,0.6985 z"
         style="-inkscape-font-specification:Poppins"
         id="path817" />
      <path
         d="m 223.57289,85.915504 q 3.175,0 5.1435,1.93675 1.9685,1.905 1.9685,5.5245 V 103.632 h -2.8575 v -9.842496 q 0,-2.6035 -1.30175,-3.96875 -1.30175,-1.397 -3.556,-1.397 -2.286,0 -3.65125,1.42875 -1.3335,1.42875 -1.3335,4.15925 V 103.632 h -2.88925 V 86.233004 h 2.88925 v 2.4765 q 0.85725,-1.3335 2.31775,-2.06375 1.49225,-0.73025 3.27025,-0.73025 z"
         style="-inkscape-font-specification:Poppins"
         id="path819" />
    </g>
    <g
       id="g2260"
       transform="matrix(1.3871449,0,0,1.3871449,-81.685151,-41.588674)">
      <g
         id="g5754">
        <path
           style="color:#000000;fill:#000000;stroke-linejoin:round;-inkscape-stroke:none"
           d="m 194.31836,85.255859 a 0.67225723,0.67225723 0 0 0 -0.58008,0.339844 l -7.12891,12.503906 a 0.67225723,0.67225723 0 0 0 0.58594,1.00586 l 14.39649,-0.07813 a 0.67225723,0.67225723 0 0 0 0.57617,-1.011719 l -7.26563,-12.427734 a 0.67225723,0.67225723 0 0 0 -0.58398,-0.332032 z m 0.0117,2.017578 6.08984,10.416016 -12.0664,0.06641 z"
           id="path1774"
           transform="matrix(0.78536978,0,0,1.585119,38.836027,-43.280401)" />
        <circle
           style="fill:#000000;stroke-width:0.865086;stroke-linejoin:round"
           id="path1776"
           cx="191.62843"
           cy="89.110741"
           r="1.7301725" />
        <path
           style="color:#000000;fill:#000000;stroke-linejoin:round;-inkscape-stroke:none"
           d="m 191.62695,83.060547 c -1.71672,5.58e-4 -3.35151,0.738961 -4.48828,2.02539 l 0.75586,0.667969 c 0.94565,-1.070139 2.30433,-1.683129 3.73242,-1.683594 1.42809,-4.64e-4 2.78609,0.612118 3.73242,1.681641 l 0.75586,-0.669922 c -1.1376,-1.285689 -2.77155,-2.022043 -4.48828,-2.021484 z"
           id="path1776-2" />
        <path
           style="color:#000000;fill:#000000;stroke-linejoin:round;-inkscape-stroke:none"
           d="m 191.61914,85.003906 c -1.15824,0.0029 -2.25781,0.518681 -3.00195,1.40625 l 0.71875,0.601563 c 0.56698,-0.676262 1.40266,-1.06814 2.28515,-1.070313 0.8825,-0.0022 1.72072,0.385133 2.29102,1.058594 l 0.71484,-0.605469 c -0.7485,-0.883895 -1.84957,-1.393476 -3.00781,-1.390625 z"
           id="path1776-6" />
        <path
           style="color:#000000;fill:#000000;stroke-linejoin:round;-inkscape-stroke:none"
           d="m 191.63672,81.154297 c -2.27628,-0.0023 -4.44076,0.994709 -5.91797,2.726562 l 0.76758,0.654297 c 1.28563,-1.50725 3.16736,-2.37505 5.14844,-2.373047 1.98107,0.002 3.86194,0.872965 5.14453,2.382813 l 0.76757,-0.652344 c -1.4737,-1.734838 -3.63387,-2.735979 -5.91015,-2.738281 z"
           id="path1776-2-9" />
      </g>
      <g
         aria-label="nternet café"
         id="text5758"
         style="font-size:8.13822px;font-family:Poppins;-inkscape-font-specification:Poppins;stroke-width:1.00927;stroke-linejoin:round">
        <path
           d="m 201.07313,112.08086 q -0.0895,0 -0.13835,-0.0814 -0.0407,-0.0895 -0.057,-0.19532 -0.008,-0.10579 -0.008,-0.1709 0,-0.11393 0.0163,-0.29297 0.0163,-0.17905 0.0407,-0.37436 0.0244,-0.20346 0.0488,-0.34995 l 0.13835,-0.84637 q 0.0244,-0.16277 0.0488,-0.30112 0.0244,-0.14648 0.0244,-0.30925 0,-0.12207 -0.0488,-0.18718 -0.0488,-0.0651 -0.13021,-0.0651 -0.1058,0 -0.34994,0.20345 -0.24415,0.20346 -0.52085,0.58595 -0.2767,0.37436 -0.50457,0.90335 -0.21973,0.52898 -0.28484,1.18004 l -0.21159,-1.20446 q 0.24415,-0.70802 0.54526,-1.19632 0.30925,-0.48829 0.62664,-0.7894 0.31739,-0.30112 0.61037,-0.43947 0.30111,-0.13835 0.52898,-0.13835 0.24415,0 0.39064,0.0895 0.15462,0.0895 0.21973,0.25229 0.0732,0.15462 0.0732,0.36622 0,0.20345 -0.0325,0.40691 -0.0244,0.19532 -0.057,0.40691 l -0.39063,2.54726 z m -2.43333,0.0326 q -0.1058,0 -0.16277,-0.0407 -0.0488,-0.0326 -0.057,-0.18718 0,-0.15463 0.0407,-0.49644 l 0.38249,-3.38549 h 0.56968 q 0.12207,0 0.21973,0.17904 0.0977,0.17904 0.0977,0.40691 0,0.10579 -0.0651,0.33366 -0.057,0.21974 -0.13835,0.47202 -0.0814,0.24415 -0.14648,0.43133 l -0.2116,0.66733 0.30112,-0.0488 -0.13021,1.33467 q -0.008,0.0814 -0.0977,0.14649 -0.0895,0.0651 -0.2116,0.10579 -0.12207,0.0407 -0.23601,0.057 -0.10579,0.0244 -0.15462,0.0244 z"
           style="-inkscape-font-specification:Alkatra"
           id="path862" />
        <path
           d="m 203.53901,112.12969 q -0.39063,0 -0.55339,-0.22787 -0.15463,-0.22787 -0.0977,-0.71616 l 0.31739,-2.48216 h -0.26043 q -0.12207,0 -0.12207,-0.13021 0,-0.0814 0.1058,-0.23601 0.11393,-0.15462 0.28484,-0.3418 0.1709,-0.18718 0.34994,-0.35808 0.18718,-0.17091 0.3418,-0.2767 0.15463,-0.11394 0.23601,-0.11394 0.0895,0 0.12208,0.0732 0.0326,0.0651 0.0163,0.17091 l -0.0732,0.64292 h 0.91148 q 0.12207,0 0.13835,0.0407 0.0244,0.0407 -0.008,0.13021 -0.0977,0.2767 -0.18718,0.3418 -0.0814,0.057 -0.30925,0.057 h -0.65106 l -0.20345,1.74158 q -0.0163,0.15463 -0.0326,0.29298 -0.008,0.13835 -0.008,0.25228 0,0.18718 0.0895,0.26856 0.0895,0.0733 0.29297,0.0733 0.19532,0 0.33367,-0.0814 0.14649,-0.0814 0.20345,-0.0814 0.0651,0 0.0651,0.0814 0,0.0814 -0.0895,0.22788 -0.0814,0.14648 -0.25229,0.30111 -0.16276,0.14649 -0.40691,0.24415 -0.24414,0.10579 -0.5534,0.10579 z"
           style="-inkscape-font-specification:Alkatra"
           id="path864" />
        <path
           d="m 206.55016,112.12969 q -0.62664,0 -0.96844,-0.39063 -0.34181,-0.39877 -0.34181,-1.09052 0,-0.57782 0.16277,-1.05797 0.16276,-0.48016 0.45574,-0.83824 0.29297,-0.35808 0.68361,-0.5534 0.39877,-0.19531 0.86265,-0.19531 0.5534,0 0.84637,0.236 0.29298,0.23601 0.29298,0.67548 0,0.4476 -0.30112,0.78126 -0.29297,0.33367 -0.85451,0.56968 -0.5534,0.23601 -1.32653,0.39877 l -0.1058,-0.48829 q 0.44761,-0.057 0.82196,-0.19532 0.37436,-0.13835 0.60223,-0.36622 0.22787,-0.23601 0.22787,-0.5534 0,-0.21973 -0.0895,-0.33366 -0.0814,-0.11394 -0.30111,-0.11394 -0.33367,0 -0.56968,0.24415 -0.22787,0.24414 -0.34994,0.63478 -0.11394,0.39063 -0.11394,0.8301 0,0.59409 0.17905,0.79754 0.18717,0.19532 0.54526,0.19532 0.37435,0 0.65105,-0.11393 0.28484,-0.12208 0.4883,-0.25229 0.0651,-0.0407 0.11393,-0.0651 0.0488,-0.0244 0.0814,-0.0244 0.0407,0 0.0651,0.0326 0.0244,0.0326 0.0244,0.0733 0,0.14649 -0.13021,0.3418 -0.13021,0.19532 -0.37436,0.3825 -0.236,0.18718 -0.56153,0.30925 -0.32553,0.13021 -0.71617,0.13021 z"
           style="-inkscape-font-specification:Alkatra"
           id="path866" />
        <path
           d="m 209.87055,111.80416 -0.19531,-1.22887 q 0.30111,-0.78127 0.61036,-1.35094 0.31739,-0.57782 0.64292,-0.89521 0.32553,-0.31739 0.6592,-0.31739 0.18718,0 0.26856,0.12208 0.0814,0.11393 0.0814,0.29297 0,0.16277 -0.0407,0.31739 -0.0326,0.14649 -0.1058,0.24415 -0.0651,0.0977 -0.16276,0.0977 -0.0895,0 -0.20346,-0.057 -0.10579,-0.057 -0.29297,-0.057 -0.12208,0 -0.30925,0.25229 -0.18718,0.25228 -0.39064,0.67547 -0.19532,0.41505 -0.34994,0.91962 -0.15463,0.49643 -0.2116,0.98472 z m -0.68361,0.30926 q -0.10579,0 -0.16276,-0.0407 -0.0488,-0.0326 -0.057,-0.18718 0,-0.15463 0.0407,-0.49644 l 0.3825,-3.38549 h 0.56967 q 0.12208,0 0.21974,0.17904 0.0976,0.17904 0.0976,0.40691 0,0.10579 -0.0651,0.33366 -0.057,0.21974 -0.13835,0.47202 -0.0814,0.24415 -0.14649,0.43133 l -0.21159,0.66733 0.30111,-0.0488 -0.14649,1.35908 q -0.008,0.0814 -0.0977,0.14649 -0.0895,0.057 -0.2116,0.0895 -0.11393,0.0407 -0.21973,0.057 -0.1058,0.0163 -0.15463,0.0163 z"
           style="-inkscape-font-specification:Alkatra"
           id="path868" />
        <path
           d="m 214.76162,112.08086 q -0.0895,0 -0.13835,-0.0814 -0.0407,-0.0895 -0.057,-0.19532 -0.008,-0.10579 -0.008,-0.1709 0,-0.11393 0.0163,-0.29297 0.0163,-0.17905 0.0407,-0.37436 0.0244,-0.20346 0.0488,-0.34995 l 0.13835,-0.84637 q 0.0244,-0.16277 0.0488,-0.30112 0.0244,-0.14648 0.0244,-0.30925 0,-0.12207 -0.0488,-0.18718 -0.0488,-0.0651 -0.13022,-0.0651 -0.10579,0 -0.34994,0.20345 -0.24415,0.20346 -0.52084,0.58595 -0.2767,0.37436 -0.50457,0.90335 -0.21974,0.52898 -0.28484,1.18004 l -0.2116,-1.20446 q 0.24415,-0.70802 0.54527,-1.19632 0.30925,-0.48829 0.62664,-0.7894 0.31739,-0.30112 0.61036,-0.43947 0.30112,-0.13835 0.52899,-0.13835 0.24415,0 0.39063,0.0895 0.15463,0.0895 0.21974,0.25229 0.0732,0.15462 0.0732,0.36622 0,0.20345 -0.0326,0.40691 -0.0244,0.19532 -0.057,0.40691 l -0.39064,2.54726 z m -2.43333,0.0326 q -0.10579,0 -0.16276,-0.0407 -0.0488,-0.0326 -0.057,-0.18718 0,-0.15463 0.0407,-0.49644 l 0.3825,-3.38549 h 0.56967 q 0.12208,0 0.21974,0.17904 0.0977,0.17904 0.0977,0.40691 0,0.10579 -0.0651,0.33366 -0.057,0.21974 -0.13835,0.47202 -0.0814,0.24415 -0.14649,0.43133 l -0.21159,0.66733 0.30111,-0.0488 -0.13021,1.33467 q -0.008,0.0814 -0.0977,0.14649 -0.0895,0.0651 -0.21159,0.10579 -0.12208,0.0407 -0.23601,0.057 -0.1058,0.0244 -0.15463,0.0244 z"
           style="-inkscape-font-specification:Alkatra"
           id="path870" />
        <path
           d="m 217.62628,112.12969 q -0.62664,0 -0.96845,-0.39063 -0.3418,-0.39877 -0.3418,-1.09052 0,-0.57782 0.16276,-1.05797 0.16277,-0.48016 0.45574,-0.83824 0.29298,-0.35808 0.68361,-0.5534 0.39878,-0.19531 0.86266,-0.19531 0.55339,0 0.84637,0.236 0.29298,0.23601 0.29298,0.67548 0,0.4476 -0.30112,0.78126 -0.29297,0.33367 -0.85451,0.56968 -0.5534,0.23601 -1.32653,0.39877 l -0.1058,-0.48829 q 0.4476,-0.057 0.82196,-0.19532 0.37436,-0.13835 0.60223,-0.36622 0.22787,-0.23601 0.22787,-0.5534 0,-0.21973 -0.0895,-0.33366 -0.0814,-0.11394 -0.30111,-0.11394 -0.33367,0 -0.56968,0.24415 -0.22787,0.24414 -0.34994,0.63478 -0.11394,0.39063 -0.11394,0.8301 0,0.59409 0.17904,0.79754 0.18718,0.19532 0.54526,0.19532 0.37436,0 0.65106,-0.11393 0.28484,-0.12208 0.4883,-0.25229 0.0651,-0.0407 0.11393,-0.0651 0.0488,-0.0244 0.0814,-0.0244 0.0407,0 0.0651,0.0326 0.0244,0.0326 0.0244,0.0733 0,0.14649 -0.13021,0.3418 -0.13021,0.19532 -0.37436,0.3825 -0.23601,0.18718 -0.56153,0.30925 -0.32553,0.13021 -0.71617,0.13021 z"
           style="-inkscape-font-specification:Alkatra"
           id="path872" />
        <path
           d="m 220.8246,112.12969 q -0.39064,0 -0.5534,-0.22787 -0.15463,-0.22787 -0.0977,-0.71616 l 0.31739,-2.48216 h -0.26042 q -0.12208,0 -0.12208,-0.13021 0,-0.0814 0.1058,-0.23601 0.11394,-0.15462 0.28484,-0.3418 0.1709,-0.18718 0.34994,-0.35808 0.18718,-0.17091 0.34181,-0.2767 0.15462,-0.11394 0.23601,-0.11394 0.0895,0 0.12207,0.0732 0.0325,0.0651 0.0163,0.17091 l -0.0733,0.64292 h 0.91148 q 0.12208,0 0.13835,0.0407 0.0244,0.0407 -0.008,0.13021 -0.0977,0.2767 -0.18718,0.3418 -0.0814,0.057 -0.30925,0.057 h -0.65105 l -0.20346,1.74158 q -0.0163,0.15463 -0.0326,0.29298 -0.008,0.13835 -0.008,0.25228 0,0.18718 0.0895,0.26856 0.0895,0.0733 0.29297,0.0733 0.19532,0 0.33367,-0.0814 0.14649,-0.0814 0.20346,-0.0814 0.0651,0 0.0651,0.0814 0,0.0814 -0.0895,0.22788 -0.0814,0.14648 -0.25228,0.30111 -0.16277,0.14649 -0.40691,0.24415 -0.24415,0.10579 -0.5534,0.10579 z"
           style="-inkscape-font-specification:Alkatra"
           id="path874" />
        <path
           d="m 225.9761,112.12969 q -0.64292,0 -0.98472,-0.39877 -0.34181,-0.39877 -0.34181,-1.14749 0,-0.73244 0.28484,-1.31839 0.29297,-0.58595 0.78941,-0.91962 0.50457,-0.3418 1.14748,-0.3418 0.34181,0 0.60223,0.0895 0.26043,0.0895 0.26043,0.37435 0,0.12208 -0.0407,0.24415 -0.0407,0.12207 -0.1058,0.20346 -0.0651,0.0814 -0.13021,0.0814 -0.0326,0 -0.0895,-0.0163 -0.057,-0.0244 -0.0977,-0.0488 -0.0895,-0.057 -0.21973,-0.13021 -0.12208,-0.0732 -0.2767,-0.13021 -0.14649,-0.057 -0.30926,-0.057 -0.25228,0 -0.45574,0.23601 -0.19531,0.23601 -0.30925,0.62664 -0.11393,0.39064 -0.11393,0.84638 0,0.60223 0.17904,0.80568 0.18718,0.19532 0.53712,0.19532 0.29298,0 0.49643,-0.0977 0.20346,-0.1058 0.39064,-0.23601 0.0732,-0.0488 0.11393,-0.057 0.0407,-0.0163 0.0732,-0.0163 0.0407,0 0.0651,0.0326 0.0244,0.0326 0.0244,0.0732 0,0.14649 -0.12207,0.34181 -0.12207,0.18718 -0.33367,0.36622 -0.21159,0.1709 -0.48015,0.28484 -0.26042,0.11393 -0.5534,0.11393 z"
           style="-inkscape-font-specification:Alkatra"
           id="path876" />
        <path
           d="m 228.73496,112.12969 q -0.45574,0 -0.65106,-0.36622 -0.19531,-0.37436 -0.19531,-1.04169 0,-0.59409 0.1709,-1.09052 0.17904,-0.49643 0.48015,-0.85451 0.30112,-0.36622 0.69989,-0.56154 0.39877,-0.20346 0.84638,-0.20346 0.34994,0 0.63478,0.0977 0.29297,0.0895 0.49643,0.18718 l -0.23601,0.85451 q -0.21973,-0.14648 -0.49643,-0.26856 -0.26856,-0.12207 -0.50457,-0.18718 -0.22787,-0.0732 -0.34181,-0.0732 -0.22787,0 -0.42318,0.22787 -0.18718,0.21973 -0.30112,0.6185 -0.10579,0.39064 -0.10579,0.90335 0,0.47201 0.0651,0.71616 0.0733,0.24415 0.22787,0.24415 0.1058,0 0.35808,-0.23601 0.25229,-0.24415 0.61037,-0.80568 0.35808,-0.56154 0.75685,-1.52185 l 0.22787,0.7243 q -0.43946,0.97659 -0.83823,1.5544 -0.39877,0.57781 -0.76499,0.8301 -0.36622,0.25228 -0.71617,0.25228 z m 1.94504,-0.0488 q -0.16277,0 -0.19532,-0.15462 -0.0325,-0.16277 -0.0325,-0.34181 0,-0.13835 0.0325,-0.3418 0.0407,-0.20346 0.0977,-0.43947 0.057,-0.23601 0.12207,-0.46388 l 0.17904,-0.61036 -0.23601,-0.2116 0.19532,-1.22887 q 0.26042,-0.0407 0.45574,-0.10579 0.20346,-0.0651 0.33367,-0.11394 0.13835,-0.0488 0.19532,-0.0488 0.0895,0 0.0895,0.0977 0,0.0407 -0.1058,0.34994 -0.0977,0.30112 -0.21973,0.77313 -0.11394,0.47202 -0.17091,1.02542 l -0.1709,1.81482 z"
           style="-inkscape-font-specification:Alkatra"
           id="path878" />
        <path
           d="m 232.41344,113.78175 q -0.1058,0 -0.15463,-0.0732 -0.0488,-0.0651 -0.0488,-0.17904 0,-0.17091 0.0244,-0.37436 l 0.60223,-4.98873 q 0.11393,-0.94403 0.58595,-1.3835 0.48015,-0.4476 1.29398,-0.4476 0.37435,0 0.52898,0.12207 0.16276,0.11394 0.16276,0.34995 0,0.13835 -0.0325,0.26042 -0.0326,0.12207 -0.0895,0.20346 -0.057,0.0732 -0.13835,0.0732 -0.0651,0 -0.19532,-0.0977 -0.13021,-0.1058 -0.30111,-0.20345 -0.1709,-0.0977 -0.37436,-0.0977 -0.26856,0 -0.37436,0.2767 -0.0976,0.26856 -0.14648,0.71616 l -0.26857,2.36822 q -0.057,0.48016 -0.0977,0.97659 -0.0407,0.48829 -0.0814,0.91148 -0.0244,0.20345 -0.13021,0.47202 -0.0977,0.26856 -0.24414,0.52084 -0.14649,0.26042 -0.28484,0.42319 -0.13835,0.1709 -0.23601,0.1709 z m -0.0407,-5.07825 q -0.057,0 -0.0814,-0.0407 -0.0244,-0.0407 -0.008,-0.0977 l 0.057,-0.15462 q 0.057,-0.16277 0.12207,-0.21974 0.0651,-0.057 0.31739,-0.057 h 1.95317 q 0.1058,0 0.0651,0.13021 -0.0814,0.22787 -0.1709,0.33367 -0.0895,0.10579 -0.33367,0.10579 z"
           style="-inkscape-font-specification:Alkatra"
           id="path880" />
        <path
           d="m 235.81521,112.12969 q -0.62665,0 -0.96845,-0.39063 -0.34181,-0.39877 -0.34181,-1.09052 0,-0.57782 0.16277,-1.05797 0.16276,-0.48016 0.45574,-0.83824 0.29297,-0.35808 0.68361,-0.5534 0.39877,-0.19531 0.86265,-0.19531 0.5534,0 0.84638,0.236 0.29297,0.23601 0.29297,0.67548 0,0.4476 -0.30111,0.78126 -0.29298,0.33367 -0.85452,0.56968 -0.55339,0.23601 -1.32653,0.39877 l -0.10579,-0.48829 q 0.4476,-0.057 0.82196,-0.19532 0.37436,-0.13835 0.60223,-0.36622 0.22787,-0.23601 0.22787,-0.5534 0,-0.21973 -0.0895,-0.33366 -0.0814,-0.11394 -0.30112,-0.11394 -0.33367,0 -0.56967,0.24415 -0.22787,0.24414 -0.34995,0.63478 -0.11393,0.39063 -0.11393,0.8301 0,0.59409 0.17904,0.79754 0.18718,0.19532 0.54526,0.19532 0.37436,0 0.65106,-0.11393 0.28483,-0.12208 0.48829,-0.25229 0.0651,-0.0407 0.11394,-0.0651 0.0488,-0.0244 0.0814,-0.0244 0.0407,0 0.0651,0.0326 0.0244,0.0326 0.0244,0.0733 0,0.14649 -0.13021,0.3418 -0.13022,0.19532 -0.37436,0.3825 -0.23601,0.18718 -0.56154,0.30925 -0.32553,0.13021 -0.71616,0.13021 z m -0.37436,-4.61437 q -0.0651,0.0488 -0.0651,0.1058 0,0.057 0.0651,0.0977 0.0732,0.0326 0.14649,0.0326 0.0407,0 0.0814,0 0.0488,-0.008 0.0977,-0.0326 l 1.48929,-0.70803 q 0.0814,-0.0407 0.1058,-0.0732 0.0326,-0.0407 0.0326,-0.1058 0,-0.13835 -0.0732,-0.24414 -0.0651,-0.11394 -0.16277,-0.17905 -0.0976,-0.0732 -0.20345,-0.0732 -0.11394,0 -0.20346,0.0732 z"
           style="-inkscape-font-specification:Alkatra"
           id="path882" />
      </g>
    </g>
  </g>
</svg>
